<!DOCTYPE svg PUBLIC "-//W3C//DTD SVG 1.1//EN" "http://www.w3.org/Graphics/SVG/1.1/DTD/svg11.dtd">
<!-- Uploaded to: SVG Repo, www.svgrepo.com, Transformed by: SVG Repo Mixer Tools -->
<svg width="800px" height="800px" viewBox="0 0 1024 1024" class="icon" version="1.1" xmlns="http://www.w3.org/2000/svg" fill="#000000">
<g id="SVGRepo_bgCarrier" stroke-width="0"/>
<g id="SVGRepo_tracerCarrier" stroke-linecap="round" stroke-linejoin="round"/>
<g id="SVGRepo_iconCarrier">
<path d="M336.179436 201.043979h318.251204v65.845041H336.179436zM336.179436 387.613291h150.330939v65.845042H336.179436zM336.179436 574.180556h150.330939v65.845041H336.179436zM336.179436 761.663174h64.015358v64.016382h-64.015358zM444.983634 761.663174h64.016382v64.016382H444.983634zM553.787832 761.663174h64.016382v64.016382h-64.016382zM662.59203 761.663174h64.016382v64.016382h-64.016382z" fill="#00bfaa"/>
<path d="M894.518438 854.001248L812.792935 726.388277c31.477307-26.137745 53.375142-61.650183 62.269634-102.25338 10.579807-48.203497 1.73651-97.638728-24.894748-139.190043-13.937127-21.767802-31.948294-39.895692-52.796647-53.852272V178.843074c0-35.605612-28.972883-64.577471-64.487369-64.577472l-519.137505-2.470635c-0.043003 0-0.077815-0.012287-0.120818-0.012287-0.038908 0-0.071672 0.012287-0.11058 0.012287l-2.523877-0.012287-0.001024 0.285664c-55.154655 1.551186-84.140848 48.925336-84.140848 95.981058v20.674293h132.202025l-0.11877 625.023629c0 35.605612 28.962644 64.577471 64.568256 64.577472h409.2828c35.614827 0 64.58771-28.972883 64.58771-64.577472V804.613115l50.684372 79.14224 46.462892-29.754107z m-79.157598-346.767434v0.010239c20.654839 32.253412 27.518966 70.614299 19.32174 108.037307-8.155247 37.224375-30.281408 69.050826-62.262467 89.71488l-6.080855 3.52319c-20.609788 11.929288-42.936631 18.174988-65.171325 19.233686-0.612283 0.027645-1.226615 0.033788-1.840946 0.053242-3.648103 0.127986-7.290064 0.108532-10.921784-0.043003-1.46518-0.066553-2.931384-0.194538-4.397588-0.306142-2.811589-0.204777-5.620107-0.454605-8.410194-0.823204-2.426608-0.330715-4.849121-0.777129-7.273681-1.232758-1.939239-0.35836-3.887693-0.684979-5.810549-1.124226-2.910906-0.667573-5.758331-1.491801-8.599613-2.328315-1.57064-0.462796-3.160734-0.861088-4.716016-1.377126-2.770634-0.918425-5.459357-2.012959-8.153199-3.09111-1.606476-0.645048-3.241621-1.209209-4.824548-1.912618-2.373366-1.052554-4.651511-2.276097-6.955253-3.452541-1.807158-0.923545-3.654247-1.763131-5.425568-2.766538-1.868591-1.05665-3.633769-2.270978-5.450142-3.410562-2.077463-1.303406-4.194858-2.533092-6.209864-3.947078-1.30443-0.916377-2.512615-1.964836-3.785304-2.92524-2.388724-1.801014-4.805094-3.558002-7.090406-5.519766-0.619451-0.53242-1.173373-1.140608-1.784632-1.683268-9.65831-8.579135-18.365431-18.538468-25.671877-29.951717a144.419025 144.419025 0 0 1-7.225559-12.649079c-0.264162-0.520134-0.456653-1.063817-0.714672-1.584975-27.314189-55.607212-15.412546-122.422897 28.056506-165.235637 0.21092-0.207849 0.394196-0.438223 0.607164-0.645048 2.800326-2.723535 5.809525-5.281201 8.864799-7.796887 0.684979-0.564161 1.30443-1.189755 2.00272-1.742653a144.080119 144.080119 0 0 1 11.817684-8.44091 145.545299 145.545299 0 0 1 17.687619-9.641928c3.381893-1.551186 6.890748-2.655959 10.353529-3.929672 2.727631-1.006479 5.397923-2.211592 8.172652-3.047083 3.760731-1.128322 7.602349-1.814325 11.423489-2.626266 2.618075-0.556994 5.196218-1.298287 7.840914-1.704769 3.598957-0.553922 7.234774-0.700338 10.859328-0.977811 2.975411-0.226279 5.932392-0.598973 8.926232-0.636856 5.994849-0.080887 11.998912 0.148463 17.973283 0.825251 0.267234 0.030717 0.535492 0.098293 0.802726 0.130034 5.813621 0.69317 11.594477 1.771322 17.31902 3.182235 0.945046 0.231398 1.868591 0.511943 2.80647 0.760747 5.586318 1.497944 11.125538 3.262099 16.556226 5.450142 0.206825 0.082935 0.419793 0.153583 0.625594 0.237541a145.826867 145.826867 0 0 1 17.754171 8.687667l2.062105 1.189755c18.727886 11.227926 34.824388 26.596445 46.942071 45.51887zM171.348233 187.373062c5.128642-16.904347 17.302638-34.158862 42.132881-34.22951l0.306142 0.001024c24.820004 0.077815 36.989905 17.328235 42.116499 34.228486h-84.555522z m584.673333 666.373238c0 12.810853-10.418033 23.228886-23.239126 23.228887H323.500664c-12.800614 0-23.218648-10.418033-23.218648-23.228887l0.118771-625.023629h0.002048v-20.674292c0-19.200921-5.025229-38.338362-14.457261-54.559778l446.83789 2.12661c12.821092 0 23.239125 10.418033 23.239125 23.228886v231.559858c-0.287712-0.102389-0.585662-0.153583-0.874398-0.254948-5.461404-1.883949-11.042603-3.494521-16.722095-4.878813-1.060745-0.261091-2.10306-0.615355-3.168925-0.858016-0.373718-0.084982-0.726959-0.21604-1.100677-0.297951a187.719135 187.719135 0 0 0-18.658262-3.100325c-0.806822-0.093174-1.617739-0.086006-2.423536-0.167917-5.784952-0.593853-11.562737-0.942998-17.329259-0.990097-1.761083-0.012287-3.513974 0.115699-5.276082 0.153583-4.865503 0.099317-9.7136 0.330715-14.539171 0.815013-1.96074 0.19761-3.903051 0.489417-5.856624 0.750508a181.261491 181.261491 0 0 0-13.764091 2.353912c-2.028317 0.430032-4.042299 0.894876-6.057305 1.394532a181.940327 181.940327 0 0 0-13.253172 3.854928c-1.998624 0.657334-3.995201 1.284976-5.976419 2.012959-4.466188 1.646408-8.847393 3.535476-13.198905 5.537171-1.766202 0.809893-3.560049 1.521494-5.307822 2.389749-5.973347 2.978482-11.849425 6.220103-17.549394 9.870254a188.323228 188.323228 0 0 0-14.972275 10.651479 185.35396 185.35396 0 0 0-13.706753 11.929288c-26.10498 25.080071-44.23287 57.297647-52.152623 93.451038-10.569568 48.203497-1.726271 97.638728 24.884509 139.190042 3.150495 4.918745 6.524197 9.605068 10.044315 14.122451 1.225591 1.573712 2.560737 3.027629 3.829331 4.555266 2.376438 2.854592 4.76721 5.690755 7.284944 8.371286 1.637193 1.743677 3.356296 3.387013 5.054922 5.061065 2.32422 2.290431 4.667893 4.545027 7.094501 6.693138a181.286064 181.286064 0 0 0 5.754236 4.853217 181.40893 181.40893 0 0 0 7.443646 5.75014c2.003744 1.467228 4.01363 2.919097 6.07676 4.304414 2.778825 1.867567 5.620107 3.6051 8.485961 5.309869 1.894188 1.127298 3.756635 2.295551 5.692803 3.353225 4.007487 2.194186 8.100981 4.19281 12.246692 6.076759 0.883613 0.400339 1.726271 0.875422 2.617051 1.261427 5.28632 2.302718 10.677076 4.322844 16.141552 6.117714 0.884637 0.288736 1.797943 0.506823 2.687699 0.783273a184.740653 184.740653 0 0 0 13.871598 3.754587c0.576447 0.132081 1.12525 0.334811 1.704769 0.461773 0.919449 0.201705 1.847089 0.26621 2.768586 0.454605 4.496904 0.910234 9.017358 1.651527 13.575696 2.224902 2.001696 0.256995 3.996224 0.528325 5.998944 0.720816 4.1109 0.380885 8.237157 0.565185 12.376726 0.669621 1.73139 0.049146 3.4679 0.281568 5.196218 0.281568 0.923545 0 1.830707-0.183275 2.753227-0.196586 6.091094-0.11058 12.184235-0.582591 18.27533-1.303406 2.796231-0.324572 5.580175-0.638904 8.356952-1.091462a183.546803 183.546803 0 0 0 18.078743-3.930695c3.219095-0.867231 6.376758-1.899307 9.550802-2.943671 1.34129-0.443342 2.703057-0.769962 4.038204-1.24402v95.06468z" fill="#20252d"/>
</g>
</svg>